<?xml version="1.0" encoding="UTF-8"?>
<svg width="13px" height="23px" viewBox="0 0 13 23" version="1.1" xmlns="http://www.w3.org/2000/svg" xmlns:xlink="http://www.w3.org/1999/xlink">
    <!-- Generator: Sketch 63.1 (92452) - https://sketch.com -->
    <title>Arrow-left - simple-line-icons</title>
    <desc>Created with Sketch.</desc>
    <g id="Page-1" stroke="none" stroke-width="1" fill="none" fill-rule="evenodd">
        <g id="HOST-DOUBLE-PLAN" transform="translate(-12.000000, -53.000000)" fill="#FFFFFF">
            <g id="Group-22">
                <path d="M23.3531604,54 C23.4560381,54 23.5515659,54.0179204 23.6397469,54.05376 C23.727928,54.0895996 23.8087595,54.143358 23.8822439,54.2150366 C24.0292127,54.3583939 24.1026977,54.5340034 24.1026977,54.7418703 C24.1026977,54.9497372 24.029217,55.1253458 23.8822498,55.2687015 L13.8297427,65.0741796 L23.7500885,74.7507495 C23.8970573,74.8941068 23.9705412,75.0661324 23.9705423,75.2668315 C23.9705435,75.4675305 23.8970615,75.6395553 23.7500943,75.782911 C23.6031271,75.9262667 23.4230944,75.9979416 23.2099907,75.9979416 C22.9968871,75.9979416 22.8168536,75.9262622 22.6698848,75.7829049 L12.2204538,65.5902513 C12.073485,65.446894 12,65.2748684 12,65.0741693 C12,64.8734702 12.0734808,64.7014455 12.220448,64.5580898 L22.8240794,54.2150307 C22.897563,54.1433529 22.9820681,54.0895955 23.0775971,54.0537569 C23.1731261,54.0179183 23.2649796,54 23.3531604,54 Z" id="Arrow-left---simple-line-icons" transform="translate(18.051349, 64.998971) rotate(359.000000) translate(-18.051349, -64.998971) "></path>
            </g>
        </g>
    </g>
</svg>