<?xml version="1.0" encoding="UTF-8"?>
<svg width="19px" height="19px" viewBox="0 0 19 19" version="1.1" xmlns="http://www.w3.org/2000/svg" xmlns:xlink="http://www.w3.org/1999/xlink">
    <!-- Generator: Sketch 63.1 (92452) - https://sketch.com -->
    <title>icons/budget@3x</title>
    <desc>Created with Sketch.</desc>
    <g id="Page-1" stroke="none" stroke-width="1" fill="none" fill-rule="evenodd">
        <g id="HOST-DOUBLE-PLAN" transform="translate(-223.000000, -567.000000)" fill="#807F7F" fill-rule="nonzero">
            <g id="icons/dashboard/budget" transform="translate(223.000000, 567.000000)">
                <path d="M9.5,0.277083333 C14.593562,0.277083333 18.7229167,4.40643799 18.7229167,9.5 C18.7229167,14.593562 14.593562,18.7229167 9.5,18.7229167 C4.40643799,18.7229167 0.277083333,14.593562 0.277083333,9.5 C0.277083333,4.40643799 4.40643799,0.277083333 9.5,0.277083333 Z M9.5,1.45018939 C5.05426656,1.45018939 1.45018939,5.05426656 1.45018939,9.5 C1.45018939,13.9457334 5.05426656,17.5498106 9.5,17.5498106 C13.9457334,17.5498106 17.5498106,13.9457334 17.5498106,9.5 C17.5498106,5.05426656 13.9457334,1.45018939 9.5,1.45018939 Z" id="Shape-Copy-2"></path>
                <path d="M7.94815079,10.5183712 L7.98824123,10.7477494 C8.0245697,10.9556034 8.04074242,11.1618336 8.04074242,11.4025909 C8.04074242,11.9556445 7.78794166,12.5223303 7.32172329,13.0693986 C7.1618004,13.2572304 6.98393384,13.4337047 6.79747377,13.5919554 C6.70763981,13.6686137 6.62606732,13.7325383 6.57624042,13.7669258 C6.10225975,14.0936675 6.33341976,14.836553 6.90909091,14.836553 L12.0909091,14.836553 C12.4148534,14.836553 12.6774621,14.5739443 12.6774621,14.25 C12.6774621,13.9260557 12.4148534,13.663447 12.0909091,13.663447 L8.38582076,13.663447 L8.65157924,13.2392556 C9.02254334,12.6471398 9.21384848,12.0353827 9.21384848,11.4025909 C9.21384848,11.1915697 9.20456831,11.0033436 9.18524077,10.8253692 L9.15190163,10.5183712 L11.2272727,10.5183712 C11.551217,10.5183712 11.8138258,10.2557625 11.8138258,9.93181818 C11.8138258,9.60787389 11.551217,9.34526515 11.2272727,9.34526515 L8.79548618,9.34526515 L8.72757486,9.16665837 L8.684304,9.05285568 C8.42640609,8.37273142 8.34330303,8.01288283 8.34330303,7.52961364 C8.34330303,5.81790711 9.91166806,4.87630648 11.8856018,5.59167733 C12.1878323,5.69387966 12.5163257,5.53577095 12.6249849,5.23580135 C12.7336441,4.93583175 12.5826152,4.60402373 12.2905306,4.49101266 C9.5172412,3.48549252 7.17019697,5.02725911 7.17019697,7.52961364 C7.17019697,8.04345939 7.23890818,8.44802319 7.41379418,8.98192998 L7.53280791,9.34526515 L6.90909091,9.34526515 C6.58514662,9.34526515 6.32253788,9.60787389 6.32253788,9.93181818 C6.32253788,10.2557625 6.58514662,10.5183712 6.90909091,10.5183712 L7.94815079,10.5183712 Z" id="Shape"></path>
            </g>
        </g>
    </g>
</svg>