<?xml version="1.0" encoding="UTF-8"?>
<svg width="15px" height="22px" viewBox="0 0 15 22" version="1.1" xmlns="http://www.w3.org/2000/svg" xmlns:xlink="http://www.w3.org/1999/xlink">
    <!-- Generator: Sketch 63.1 (92452) - https://sketch.com -->
    <title>Group 8</title>
    <desc>Created with Sketch.</desc>
    <g id="Page-1" stroke="none" stroke-width="1" fill="none" fill-rule="evenodd">
        <g id="HOST-DOUBLE-PLAN" transform="translate(-223.000000, -528.000000)" fill="#807F7F">
            <g id="Group-8" transform="translate(223.000000, 528.000000)">
                <g id="Group-3">
                    <path d="M1.07358573,0.928757914 C0.485922453,3.67776357 0.838002654,6.20827442 2.8581491,8.38082567 C5.14062981,10.8338561 8.68300536,11.0422784 11.1095973,8.8542311 C13.467154,6.7281681 13.9926854,4.10080672 13.4455804,1.22860718 C13.3765451,0.86677357 13.1038555,0.930307523 12.8492877,0.929532719 C9.62706354,0.92798311 6.40397641,0.928757914 3.18088928,0.928757914 C2.50952066,0.928757914 1.83901499,0.928757914 1.07358573,0.928757914 M11.2002062,21.694288 L3.2620058,21.694288 C3.31550818,20.945827 3.79185198,20.5344059 4.63408305,20.5127114 C5.19758396,20.4987649 5.76281075,20.510387 6.36773286,20.510387 L6.36773286,11.2189338 C5.33565463,10.7494024 4.30185051,10.418561 3.44926414,9.86225149 C1.50246774,8.59312205 0.53597307,6.75683586 0.145923436,4.66331464 C-0.105192589,3.31515516 -0.0249390142,1.97396892 0.33404472,0.642855128 C0.416024178,0.337582234 0.534247187,0.195793047 0.925159762,0.197330094 C5.13976687,0.211289133 9.35437397,0.207415111 13.5681181,0.206640307 C13.8037012,0.206640307 13.9926854,0.185720591 14.072939,0.480921029 C14.9790278,3.81180472 14.3810092,6.82036981 11.692083,9.36250272 C10.8222378,10.1845701 9.73406831,10.7160858 8.48280289,10.9423287 C8.20925038,10.9919162 8.04615441,11.0631982 8.04788029,11.3622726 C8.05823559,14.3197006 8.05392088,17.2771286 8.05564676,20.2337819 C8.05564676,20.3089379 8.07894619,20.3840939 8.09879385,20.5088374 C8.68127947,20.5088374 9.24391744,20.4987649 9.80482952,20.5111618 C10.6392941,20.5297571 11.1242673,20.9373042 11.2002062,21.694288" id="Fill-1"></path>
                </g>
                <path d="M2,3 L12.5,3 C12.4901892,3.87613738 12.3046017,4.70651759 11.9710348,5.51139379 C11.5589815,6.50454952 10.9458071,7.37393584 10.0391264,8.05054194 C8.43424434,9.24847978 6.38133614,9.33099271 4.70450829,8.19456452 C2.82247139,6.92011468 2.13408082,5.09657875 2,3" id="Fill-6"></path>
            </g>
        </g>
    </g>
</svg>