<?xml version="1.0" encoding="UTF-8"?>
<svg width="13px" height="13px" viewBox="0 0 13 13" version="1.1" xmlns="http://www.w3.org/2000/svg" xmlns:xlink="http://www.w3.org/1999/xlink">
    <!-- Generator: Sketch 63.1 (92452) - https://sketch.com -->
    <title>like contour</title>
    <desc>Created with Sketch.</desc>
    <g id="Page-1" stroke="none" stroke-width="1" fill="none" fill-rule="evenodd">
        <g id="HOST-DOUBLE-PLAN" transform="translate(-75.000000, -1047.000000)">
            <g id="Group-55" transform="translate(1.000000, 275.000000)">
                <g id="Group-13" transform="translate(24.000000, 769.000000)">
                    <g id="commentaire-contour" transform="translate(49.000000, 2.000000)">
                        <g id="outline-mode_comment-24px">
                            <polygon id="Path" points="0 0 15 0 15 15 0 15"></polygon>
                            <path d="M12.5,10.73125 L11.76875,10 L2.5,10 L2.5,2.5 L12.5,2.5 L12.5,10.73125 Z M12.5,1.25 L2.5,1.25 C1.8125,1.25 1.25,1.8125 1.25,2.5 L1.25,10 C1.25,10.6875 1.8125,11.25 2.5,11.25 L11.25,11.25 L13.75,13.75 L13.75,2.5 C13.75,1.8125 13.1875,1.25 12.5,1.25 Z" id="Shape" fill-opacity="0.4" fill="#000000"></path>
                        </g>
                    </g>
                </g>
            </g>
        </g>
    </g>
</svg>