<?xml version="1.0" encoding="UTF-8"?>
<svg width="14px" height="12px" viewBox="0 0 14 12" version="1.1" xmlns="http://www.w3.org/2000/svg" xmlns:xlink="http://www.w3.org/1999/xlink">
    <!-- Generator: Sketch 63.1 (92452) - https://sketch.com -->
    <title>Group 7</title>
    <desc>Created with Sketch.</desc>
    <g id="Page-1" stroke="none" stroke-width="1" fill="none" fill-rule="evenodd">
        <g id="HOST-DOUBLE-PLAN" transform="translate(-372.000000, -990.000000)" fill-rule="nonzero" stroke="#C0C0C0" stroke-width="1.5">
            <g id="Group-55" transform="translate(1.000000, 275.000000)">
                <g id="Group-7" transform="translate(371.000000, 715.000000)">
                    <g id="Select-Rating-Defaults">
                        <g id="icons/settings/heart-default">
                            <path d="M6.40819932,1.96527262 C6.06464657,1.52398416 5.59798253,1.17551797 5.0584079,0.967266559 C4.5442477,0.768823968 3.963972,0.698405883 3.35981783,0.794691744 C2.61369683,0.911434064 1.96337153,1.30768224 1.49914993,1.87429368 C1.02951353,2.44751423 0.75,3.19471484 0.75,4.01083112 C0.75,4.80951828 1.07484088,5.55801127 1.65966998,6.12279414 L7.03518101,11.2374639 L12.3407867,6.12235346 C12.9317169,5.55264423 13.25,4.7952419 13.25,3.91485071 C13.25,3.14127204 12.9671143,2.41880642 12.4978884,1.85997941 C12.0328816,1.30617728 11.3836197,0.911977386 10.6413477,0.794876556 C10.0334295,0.696095274 9.45546075,0.765510374 8.94381831,0.962981222 C8.40291543,1.17174528 7.9363767,1.52266978 7.59180068,1.96527262 C7.30390388,2.33507184 7.09893194,2.77171419 6.99862058,3.24106444 C6.89918838,2.77181998 6.69580732,2.33470089 6.40819932,1.96527262 Z" id="heart-shape"></path>
                        </g>
                    </g>
                </g>
            </g>
        </g>
    </g>
</svg>