<?xml version="1.0" encoding="UTF-8"?>
<svg width="19px" height="22px" viewBox="0 0 19 22" version="1.1" xmlns="http://www.w3.org/2000/svg" xmlns:xlink="http://www.w3.org/1999/xlink">
    <!-- Generator: Sketch 63.1 (92452) - https://sketch.com -->
    <title>icons/location</title>
    <desc>Created with Sketch.</desc>
    <g id="Page-1" stroke="none" stroke-width="1" fill="none" fill-rule="evenodd">
        <g id="HOST-DOUBLE-PLAN" transform="translate(-223.000000, -600.000000)" fill="#807F7F" fill-rule="nonzero">
            <g id="icons/dashboard/location" transform="translate(223.000000, 600.000000)">
                <path d="M3.00747003,2.97529409 C6.59403145,-0.5637996 12.4059685,-0.5637996 15.991959,2.97473213 C17.7138722,4.66533391 18.6833333,6.97576527 18.6833333,9.38714048 C18.6833333,11.7975241 17.7146694,14.1070469 15.9946531,15.7969017 L15.9946531,15.7969017 L9.97094087,21.4921036 C9.70711701,21.7415234 9.29288299,21.7415234 9.02905164,21.4920966 L9.02905164,21.4920966 L3.00314711,15.7948218 C1.28612775,14.108947 0.316666667,11.7985157 0.316666667,9.38714048 C0.316666667,6.97576527 1.28612775,4.66533391 3.00747003,2.97529409 Z M15.0288736,3.93851116 C11.975959,0.925783046 7.02404098,0.925783046 3.97112638,3.93851116 C0.923471721,6.94594581 0.918624046,11.8235603 3.95613828,14.8207819 L3.95613828,14.8207819 L9.28393537,19.858798 L9.49999065,20.0630979 L15.030977,14.8334999 C16.4957442,13.3935868 17.3178818,11.430629 17.3165087,9.38195391 C17.3151321,7.33328045 16.4903619,5.37143094 15.0288736,3.93851116 Z M9.5,13.1786496 C11.5351381,13.1786496 13.1832749,11.5305519 13.1832749,9.49963617 C13.1832749,7.46872044 11.5351381,5.8206227 9.5,5.8206227 C7.46486187,5.8206227 5.81672507,7.46872044 5.81672507,9.49963617 C5.81672507,11.5305519 7.46486187,13.1786496 9.5,13.1786496 Z M9.5,11.8203929 C8.22147801,11.8203929 7.18336253,10.782302 7.18336253,9.49963617 C7.18336253,8.21697031 8.22147801,7.17887943 9.5,7.17887943 C10.778522,7.17887943 11.8166375,8.21697031 11.8166375,9.49963617 C11.8166375,10.782302 10.778522,11.8203929 9.5,11.8203929 Z" id="Shape"></path>
            </g>
        </g>
    </g>
</svg>