<?xml version="1.0" encoding="UTF-8"?>
<svg width="10px" height="12px" viewBox="0 0 10 12" version="1.1" xmlns="http://www.w3.org/2000/svg" xmlns:xlink="http://www.w3.org/1999/xlink">
    <!-- Generator: Sketch 63.1 (92452) - https://sketch.com -->
    <title>man-walking</title>
    <desc>Created with Sketch.</desc>
    <g id="Page-1" stroke="none" stroke-width="1" fill="none" fill-rule="evenodd">
        <g id="HOST-DOUBLE-PLAN" transform="translate(-41.000000, -691.000000)" fill="#07CFDA" fill-rule="nonzero">
            <g id="man-walking" transform="translate(41.000000, 691.000000)">
                <ellipse id="Oval" cx="2.22222222" cy="1.09090909" rx="1.11111111" ry="1.09090909"></ellipse>
                <path d="M9.84283283,10.6991454 C8.43857969,8.69309348 6.83288075,6.08005464 6.56298252,5.63897125 C6.53853521,5.55894445 6.50626477,5.47774767 6.46177068,5.39608289 C6.14102205,4.79775385 5.80560504,4.20621072 5.46334278,3.61864552 C5.82614077,3.64578912 6.18991666,3.67269871 6.55247018,3.69960831 C6.80183268,4.16994126 7.04997281,4.64050821 7.29884637,5.11060717 C7.69953768,5.86805382 8.8854764,5.2016318 8.48576298,4.44629112 C8.16501435,3.83953821 7.78485877,2.47487066 6.95682859,2.41332959 C6.07574775,2.34781057 5.19491138,2.28229155 4.31407501,2.21700653 C4.29256139,2.21536855 4.27422591,2.21817651 4.25369017,2.21817651 C3.58774561,2.04759307 2.80714319,2.49733433 2.66583777,3.14714259 C2.21551843,4.0805546 1.56888724,4.80945368 0.483915881,5.11364912 C-0.365383463,5.35138956 -0.00356336228,6.62128853 0.849403077,6.38261211 C1.92190631,6.08216061 2.69224086,5.49389342 3.27628695,4.71959903 C3.63003944,5.32330998 3.97547985,5.93076488 4.30649635,6.54664365 C3.57870011,7.02703845 2.94282573,7.60805174 2.38567167,8.2784517 C2.23018681,8.4654149 2.20353925,8.65776001 2.25585648,8.82693948 C2.2539007,8.89011853 2.25805674,8.95563755 2.27688116,9.02677248 C2.49128402,9.83920831 2.7054424,10.6502402 2.92008973,11.46174 C3.14769413,12.326591 4.5781059,12.0808947 4.34854571,11.2104278 C4.14441072,10.4370693 3.94003126,9.66371094 3.73589627,8.88988453 C4.24782282,8.31214719 4.85142676,7.80952272 5.54108521,7.43419235 C5.7034153,7.34574167 5.80560504,7.2238295 5.86232278,7.08951551 C6.80574425,8.47337078 7.74941018,10.3879301 8.6923427,11.5483187 C9.26783224,12.2563921 10.4190558,11.4086228 9.84283283,10.6991454 Z" id="Path"></path>
            </g>
        </g>
    </g>
</svg>