<?xml version="1.0" encoding="UTF-8"?>
<svg width="39px" height="39px" viewBox="0 0 39 39" version="1.1" xmlns="http://www.w3.org/2000/svg" xmlns:xlink="http://www.w3.org/1999/xlink">
    <!-- Generator: Sketch 63.1 (92452) - https://sketch.com -->
    <title>Bot 2</title>
    <desc>Created with Sketch.</desc>
    <g id="Page-1" stroke="none" stroke-width="1" fill="none" fill-rule="evenodd">
        <g id="HOST-DOUBLE-PLAN" transform="translate(-28.000000, -954.000000)">
            <g id="Group-55" transform="translate(1.000000, 275.000000)">
                <g id="Bot-2" transform="translate(27.000000, 679.000000)">
                    <g id="stencil/monkee">
                        <circle id="white" fill="#FFFFFF" cx="19.5" cy="19.5" r="19.5"></circle>
                        <path d="M19.5,0 C30.2695526,0 39,8.73044738 39,19.5 C39,30.2695526 30.2695526,39 19.5,39 C8.73044738,39 0,30.2695526 0,19.5 C0,8.73044738 8.73044738,0 19.5,0 Z M22.3581958,13.7819137 C21.8607785,13.7819137 21.363998,13.8605036 20.8947633,14.0215897 C20.503071,14.1559582 20.1311225,14.3486052 19.7914966,14.6006243 L19.7914966,14.6006243 L19.7914966,18.1027999 L22.651169,18.1027999 C22.6151842,18.3910673 22.504364,18.6619918 22.317912,18.9155734 C22.1316194,19.169155 21.8942156,19.3919568 21.60586,19.5842913 C21.3176636,19.7766258 20.9840883,19.9294309 20.6056116,20.0431755 C20.3443241,20.1217655 20.0726871,20.1725443 19.7914966,20.1967619 L19.7914966,20.1967619 L19.7914966,21.7516872 C19.8537534,21.7519997 19.9164879,21.7534064 19.9787447,21.7534064 C20.7138843,21.7535621 21.437082,21.7201262 22.1190406,21.6041943 C22.8013177,21.4882623 23.4407633,21.2906156 24.0174745,20.9653187 C24.4023202,20.7482979 24.7600977,20.474561 25.0877818,20.1256715 C25.4009764,19.7919376 25.6307374,19.4014876 25.7826375,18.980414 C25.9345377,18.5594967 26.0080995,18.1082684 26.0080995,17.6586025 C26.0080995,17.6075112 26.0071441,17.5562637 26.0052334,17.5047036 L26.0052334,17.5047036 L25.9889829,17.2566864 C25.9343885,16.6773044 25.7635107,16.1038139 25.485843,15.5983889 C25.1683494,15.0201355 24.7140818,14.5320339 24.1353007,14.2089244 C23.7488628,13.993466 23.3060594,13.8498791 22.8013177,13.8026939 C22.654035,13.7889446 22.5061154,13.7819137 22.3581958,13.7819137 Z M19.1530063,18.1027999 L16.2348986,18.1027999 C16.2829844,18.3823177 16.3942823,18.6490237 16.5683147,18.9026053 C16.7426656,19.1560306 16.9709935,19.381176 17.2531394,19.5778853 C17.5356037,19.7745946 17.857078,19.9294309 18.2175623,20.0431755 C18.5060771,20.1342649 18.8183164,20.1881685 19.1530063,20.2064489 L19.1530063,21.7507497 C19.061293,21.7516872 18.969102,21.7534071 18.8777071,21.7534071 C17.8973618,21.7537183 16.9385117,21.693565 16.0701012,21.4593575 C15.6355775,21.3421756 15.2235044,21.1823395 14.838818,20.9653187 C14.4541316,20.7482979 14.0961949,20.474561 13.76867,20.1256715 C13.4553162,19.7919376 13.2257144,19.4014876 13.0738142,18.980414 C12.9217548,18.5594967 12.8481931,18.1082684 12.8481931,17.6586025 C12.8481931,17.607355 12.8491484,17.5562637 12.8510591,17.5054848 L12.8510591,17.5051724 C12.8674593,17.0634748 12.951689,16.6199024 13.1002455,16.2022662 C13.3231598,15.575265 13.6903316,15.0085735 14.1844052,14.5842189 C14.4315217,14.3718853 14.710483,14.1947063 15.0216078,14.0612752 C15.3328917,13.9278442 15.6764982,13.8380047 16.0551341,13.8026939 C16.2022576,13.7889446 16.3503364,13.7819137 16.4980967,13.7819137 C16.9953549,13.7819137 17.4922946,13.8605036 17.9615292,14.0215897 C18.3872956,14.1676764 18.7899744,14.3821973 19.1530063,14.6678086 L19.1530063,18.1027999 Z M14.2160909,10.6242528 C17.8876491,8.53310322 22.7401755,8.81949571 26.0144684,11.5801444 C26.6095256,12.0818284 27.1225569,12.6502464 27.5368015,13.2696766 C29.116754,12.8873958 29.729065,13.2783597 29.729065,13.2783597 C32.4586509,14.5848595 32.0486478,17.5740909 32.0486478,17.5740909 C31.3275493,20.7840376 28.0490227,20.9236031 27.4903788,20.9238646 L27.5017856,20.924105 C27.4413296,21.0128867 27.3789429,21.1004308 27.3146959,21.1867143 C26.9636058,21.6584104 26.5580609,22.0904209 26.1125507,22.4775898 C25.7369401,22.8039804 25.3772519,23.2153669 25.1654833,23.666439 C25.0403328,23.9329887 24.9611983,24.2190687 24.9371554,24.5118671 C24.8983046,24.9857506 25.0562553,25.4636964 25.1573629,25.9219557 C25.1928131,26.0829135 25.2282808,26.2438884 25.2637544,26.4048691 C25.8954072,24.9500723 27.1804409,23.5226678 28.9327991,23.6073168 C29.564602,23.6379404 30.1892398,23.8890221 30.6379345,24.3300946 C31.585798,25.2617686 31.3983907,26.9634057 30.2491082,27.6488415 C29.9179212,27.8461758 29.4354709,28.0419476 29.1179772,27.7254003 C28.550501,27.1596462 29.4507564,26.6563892 29.700102,26.2659392 C30.0336774,25.7437767 29.7625181,25.1244315 29.0721205,25.0514662 C28.3939833,24.9797509 27.7390929,25.3591077 27.2860991,25.88502 C26.1691391,27.1818327 26.273272,28.69426 25.7932101,30.1857509 C25.7390737,30.3538679 25.671881,30.4819867 25.5929056,30.579482 C25.5282707,30.6593069 25.4557121,30.7187661 25.375879,30.763202 L25.3579858,30.7745352 C25.1287025,30.9214031 24.6916312,30.9215593 24.4246116,30.9215593 L14.6340553,30.9215593 C13.9909475,30.9215593 13.221893,30.9959308 13.0381479,30.215187 C12.936085,29.7814578 12.9359258,29.3803833 13.0325751,28.9461855 C13.1433953,28.4479281 13.2542156,27.9496708 13.3650359,27.4514135 C13.5073826,26.8109755 13.6498885,26.1703812 13.7923945,25.529787 C13.8820379,25.1269939 13.943817,24.6895149 13.8930244,24.2675039 C13.8384104,23.8145569 13.6459079,23.484729 13.37857,23.1241213 C13.0668084,22.7035165 12.602032,22.3779071 12.2326311,22.0024564 C11.8401427,21.6032568 11.4952624,21.1589032 11.1994232,20.6865821 L11.3538217,20.9222755 C10.5692535,20.900732 7.58778275,20.6168314 6.90424631,17.5740909 C6.90424631,17.5740909 6.49424318,14.5848595 9.22382908,13.2783597 C9.22382908,13.2783597 9.81371014,12.9017174 11.330059,13.2494243 C12.0378901,12.2025161 13.0269116,11.3015376 14.2160909,10.6242528 Z M30.8599412,16.8764682 C30.8599412,16.8764682 30.486082,13.7859916 27.9625326,14.5047071 C28.0735121,14.7639134 28.1580604,15.0360878 28.2344881,15.3066998 C28.3465822,15.7029308 28.396101,16.063851 28.4448237,16.4663316 C28.5198185,17.0819271 29.8031681,16.1063489 29.8735453,16.7213194 C29.9096893,17.0384917 29.1907906,17.0709901 29.0005173,17.1133318 C28.8330131,17.1506738 28.7188491,17.1902031 28.6459243,17.2662932 C28.5785723,17.3364461 28.5465682,17.4376912 28.54004,17.5965898 C28.5304865,17.8315786 28.5085135,18.0656298 28.4671151,18.2973374 C28.3822485,18.7721584 28.2204764,19.2347924 27.9625326,19.6464914 C27.9625326,19.6464914 31.0468708,19.2630723 30.8599412,16.8764682 Z M8.09295287,16.8764682 C7.90602329,19.2630723 10.9903614,19.6464914 10.9903614,19.6464914 C10.7324177,19.2347924 10.5706456,18.7721584 10.4857789,18.2973374 C10.4443805,18.0656298 10.4224076,17.8315786 10.4128541,17.5965898 C10.4063259,17.4376912 10.3743218,17.3364461 10.3069698,17.2662932 C10.234045,17.1902031 10.119881,17.1506738 9.95237679,17.1133318 C9.76210349,17.0709901 9.04320479,17.0384917 9.07934876,16.7213194 C9.14972599,16.1063489 10.4330756,17.0819271 10.5080704,16.4663316 C10.5567931,16.063851 10.6063119,15.7029308 10.7184059,15.3066998 C10.7948337,15.0360878 10.8793819,14.7639134 10.9903614,14.5047071 C8.46681204,13.7859916 8.09295287,16.8764682 8.09295287,16.8764682 Z M22.1229098,15.8601264 C21.460695,15.8601264 21.4286909,16.7521148 21.4286909,16.7521148 L22.8279559,16.7521148 C22.8279559,15.8155973 22.1229098,15.8601264 22.1229098,15.8601264 Z M16.7227784,15.8601264 C16.0605637,15.8601264 16.0284003,16.7521148 16.0284003,16.7521148 L17.4278246,16.7521148 C17.4278246,15.8155973 16.7227784,15.8601264 16.7227784,15.8601264 Z" id="Mask-Copy-3" fill="#07CFDA"></path>
                        <g id="Page-1" stroke-width="1" transform="translate(8.029412, 13.764706)"></g>
                    </g>
                </g>
            </g>
        </g>
    </g>
</svg>