<?xml version="1.0" encoding="UTF-8"?>
<svg width="39px" height="39px" viewBox="0 0 39 39" version="1.1" xmlns="http://www.w3.org/2000/svg" xmlns:xlink="http://www.w3.org/1999/xlink">
    <!-- Generator: Sketch 63.1 (92452) - https://sketch.com -->
    <title>Group 24</title>
    <desc>Created with Sketch.</desc>
    <g id="Page-1" stroke="none" stroke-width="1" fill="none" fill-rule="evenodd">
        <g id="Group-24" transform="translate(1.000000, 1.000000)">
            <g id="Group-34" transform="translate(5.000000, 7.000000)" fill="#FFFFFF">
                <path d="M3.304,2.5210051 C3.31038286,2.55557314 3.31676572,2.59014118 3.32314858,2.62412332 C3.39626133,2.67158114 3.46937408,2.71962486 3.54306709,2.76649677 C6.52560309,4.63902989 9.51162065,6.50570402 12.4877738,8.38819743 C13.3465585,8.93073988 14.167046,8.93015398 15.0235097,8.38936922 C17.8075968,6.62991461 20.5998075,4.88393567 23.3885367,3.13209773 C23.6612589,2.96101523 23.9334008,2.78876094 24.2293333,2.60185916 C23.815608,2.28605962 23.3740302,2.19817477 22.9011184,2.19875776 C16.8083892,2.20051837 10.71566,2.19934657 4.62351106,2.20051837 C4.47496452,2.20051837 4.3188746,2.18938629 4.1784517,2.22805562 C3.8830994,2.31008147 3.59529048,2.42140228 3.304,2.5210051 L3.304,2.5210051 Z M27.5333333,11.7781145 C27.3749833,12.1842564 27.1413132,12.5135103 26.7054059,12.616441 C26.0002441,12.781998 25.3852292,12.2512233 25.3840431,11.4699427 C25.3804847,9.34312342 25.3828569,7.21568405 25.3828569,5.08886474 C25.3828569,4.98903445 25.3828569,4.88982422 25.3828569,4.74968977 C25.258312,4.82533757 25.166979,4.87680287 25.0786114,4.93446882 C22.1280819,6.85170652 19.1757731,8.76646396 16.228802,10.6892822 C14.5818431,11.763233 12.9491179,11.7619928 11.302159,10.6855618 C8.34866415,8.75592287 5.38745934,6.83806511 2.42981296,4.91524684 C2.35389984,4.86626179 2.27739365,4.81913693 2.17479232,4.75527034 C2.16530318,4.84145923 2.15225561,4.9090462 2.15225561,4.97663317 C2.15106947,9.13664213 2.14810411,13.2966511 2.15284868,17.4566601 C2.15462789,18.6893472 3.00509208,19.6430055 4.17759397,19.7180332 C4.73152253,19.7533769 5.28841644,19.7366352 5.84412421,19.7366352 C7.77990881,19.7384953 9.71569341,19.734775 11.6508849,19.7391154 C12.4562757,19.7409756 12.9835161,20.4497087 12.7421361,21.2030864 C12.6021712,21.6402314 12.3038564,21.9000382 11.8626114,21.965145 C11.7564516,21.9806465 11.6485127,21.984987 11.5411668,21.984987 C9.18430156,21.9856071 6.82743637,21.9911876 4.47057117,21.9837469 C2.40905547,21.9775462 0.766841142,20.75292 0.193341231,18.8046791 C0.112090468,18.5293707 0.063458625,18.2435212 0,17.9626322 C0,13.3146329 0,8.66663367 0,4.01925445 C0.0171990666,3.95724805 0.0397357745,3.89586172 0.0492249147,3.8326152 C0.393206247,1.60906592 2.13980111,0.00992102301 4.27960223,0.00682070332 C10.6041142,-0.00248025575 16.9286261,-0.00186019181 23.2537311,0.00620063938 C25.2292515,0.00868089514 26.906457,1.3945238 27.4004854,3.39174974 C27.4514895,3.5988511 27.4894461,3.80967284 27.5333333,4.01925445 L27.5333333,11.7781145 Z" id="Fill-1"></path>
            </g>
            <circle id="Oval" stroke="#FFFFFF" stroke-width="2" opacity="0.499734124" cx="18.5" cy="18.5" r="18.5"></circle>
        </g>
    </g>
</svg>