<?xml version="1.0" encoding="UTF-8"?>
<svg width="13px" height="22px" viewBox="0 0 13 22" version="1.1" xmlns="http://www.w3.org/2000/svg" xmlns:xlink="http://www.w3.org/1999/xlink">
    <!-- Generator: Sketch 63.1 (92452) - https://sketch.com -->
    <title>Group 14</title>
    <desc>Created with Sketch.</desc>
    <g id="Page-1" stroke="none" stroke-width="1" fill="none" fill-rule="evenodd">
        <g id="HOST-DOUBLE-PLAN" transform="translate(-226.000000, -772.000000)" fill="#807F7F">
            <g id="Group-14" transform="translate(226.000000, 772.000000)">
                <path d="M2.40092549,22 C1.67609348,21.7760592 1.43558104,21.264963 1.43821679,20.5131137 C1.4487598,16.9549428 1.42767378,13.3960995 1.41778971,9.83792872 C1.41713077,9.6536651 1.41778971,9.46940148 1.41778971,9.30329523 C0.180962726,8.8399462 0.00239047673,8.58036315 0.000413662163,7.24882313 C-0.00156315241,5.3604573 0.0043672913,3.47209146 0.00107260035,1.58372562 C0.00107260035,1.30060525 0.00370835311,1.01412239 0.362170728,1.00201748 C0.733811867,0.989240081 0.745672754,1.30531271 0.748308507,1.56960323 C0.760828333,2.8802959 0.760828333,4.19098857 0.7654409,5.50235373 C0.766099838,5.67114997 0.7654409,5.8406187 0.7654409,5.99731002 C1.36507465,6.17148621 1.41317714,6.13786147 1.41713077,5.56825824 C1.42701484,4.27303295 1.4349221,2.97780767 1.44414723,1.68190989 C1.44414723,1.60390047 1.41515395,1.5063887 1.45073662,1.45191661 C1.55287204,1.29186281 1.68070604,1.14929388 1.79799704,1 C1.91133441,1.15265636 2.11955888,1.30262273 2.12285357,1.45796907 C2.15316473,2.81506389 2.14591641,4.1735037 2.14987004,5.53127102 C2.15052897,5.69804976 2.15052897,5.86550101 2.15052897,6.06052455 L2.8463677,6.06052455 C2.8463677,5.82447882 2.84570876,5.61129792 2.84702664,5.39811701 C2.8549339,4.10289173 2.86152328,2.80699395 2.87272523,1.51176866 C2.87470204,1.27303295 2.87931461,1.00470746 3.20548901,1.00672495 C3.52112041,1.00806994 3.54286537,1.2535306 3.54286537,1.5063887 C3.53957068,2.84868863 3.54154749,4.19098857 3.54154749,5.5332885 C3.54154749,5.70073974 3.54154749,5.86819099 3.54154749,6.05985205 L4.23475047,6.05985205 C4.23475047,5.85003362 4.23409153,5.667115 4.23475047,5.48419637 C4.24002197,4.1735037 4.24858817,2.86213853 4.24990604,1.55144586 C4.25056498,1.28379287 4.26176693,1.02151984 4.59716647,1.00672495 C4.97539699,0.990585071 4.97803274,1.28446537 4.97869168,1.56086079 C4.98264531,3.4801614 4.96551292,5.4001345 4.99911877,7.3194351 C5.01954585,8.44317418 4.68875888,8.95830531 3.59755724,9.29119032 C3.59755724,9.44384667 3.59755724,9.61129792 3.59755724,9.77807666 C3.59755724,13.0558171 3.59755724,16.3335575 3.5968983,19.6106254 C3.5968983,19.9226631 3.59558042,20.2353732 3.58767316,20.5467384 C3.56461033,21.4532616 3.40053472,21.6886348 2.58476924,22 L2.40092549,22 Z" id="Fill-1"></path>
                <path d="M10.6257938,15.6729145 C10.6526395,13.8839446 10.6919998,12.0950227 10.698406,10.3058963 C10.7002368,9.79468823 10.8557477,9.3995692 11.1850571,9.06485129 C11.3153026,8.93248179 11.444455,8.79881779 11.5731061,8.66458381 C12.7625584,7.42387511 13.1936512,5.90354174 12.9213182,4.14031852 C12.7640707,3.12214961 12.472476,2.15136567 11.9393418,1.28516152 C11.718794,0.92681591 11.4576134,0.610460686 11.1341996,0.357701484 C10.4824686,-0.151580342 9.37131524,-0.159363339 8.65449799,0.61060159 C8.12490678,1.17940533 7.76006144,1.85586748 7.49551728,2.6069304 C7.17636367,3.51280366 6.9513013,4.4406744 7.00905823,5.42289233 C7.08254066,6.67306138 7.4443276,7.78502942 8.33136761,8.6389051 C8.52912796,8.82922803 8.71017399,9.04298546 8.88355932,9.26066089 C9.06686408,9.490701 9.1456386,9.76424631 9.14066676,10.0770319 C9.08135347,13.7886762 9.02681312,17.5004165 8.97199397,21.2122021 C8.97071089,21.3007941 8.97260078,21.3910787 8.98645405,21.4779899 C9.03190747,21.7634377 9.23474508,21.967555 9.49716405,21.988254 C9.64888384,22 9.80160496,22.0010429 9.95380819,21.9993184 C10.2992902,21.9954228 10.5324213,21.740721 10.5398865,21.3575393 C10.5499814,20.8392695 10.5560441,20.3209696 10.563822,19.8026532 C10.5844795,18.4260567 10.6051363,17.0495111 10.6257938,15.6729145" id="Fill-1"></path>
            </g>
        </g>
    </g>
</svg>