<?xml version="1.0" encoding="UTF-8"?>
<svg width="29px" height="29px" viewBox="0 0 29 29" version="1.1" xmlns="http://www.w3.org/2000/svg" xmlns:xlink="http://www.w3.org/1999/xlink">
    <!-- Generator: Sketch 63.1 (92452) - https://sketch.com -->
    <title>Group 19</title>
    <desc>Created with Sketch.</desc>
    <g id="Page-1" stroke="none" stroke-width="1" fill="none" fill-rule="evenodd">
        <g id="HOST-DOUBLE-PLAN" transform="translate(-117.000000, -282.000000)">
            <g id="Group-55" transform="translate(1.000000, 275.000000)">
                <g id="Group-18" transform="translate(5.000000, 0.000000)">
                    <g id="Group-19" transform="translate(111.000000, 7.000000)">
                        <path d="M5.55962871,14.4351111 C5.56521154,19.2828889 9.53375,23.2317778 14.39125,23.2240115 C19.2532115,23.2162222 23.2206346,19.2562222 23.2139508,14.4195556 C23.2061346,9.57066667 19.2409423,5.63066667 14.3756346,5.63732489 C9.50251923,5.64288889 5.55405769,9.58288889 5.55962871,14.4351111 M14.3957115,4.71176735 C19.7729808,4.71955556 24.1452885,9.07955556 24.1419442,14.4317778 C24.1397115,19.7784444 19.7551346,24.1462222 14.3856731,24.1495575 C9.00617308,24.1528889 4.61936538,19.7728889 4.63049801,14.4084444 C4.64167308,9.04844444 9.01732692,4.704 14.3957115,4.71176735" id="Fill-1" fill="#74829D"></path>
                        <path d="M2.02977692,2.68255556 C2.21158462,2.51255556 2.42796923,2.31033333 2.62985385,2.12144444 C3.99508462,3.48255556 5.37481538,4.857 6.7657,6.24255556 C6.56604615,6.417 6.34408462,6.61033333 6.14554615,6.78255556 C4.8082,5.45033333 3.42289231,4.07033333 2.02977692,2.68255556" id="Fill-3" fill="#74829D"></path>
                        <path d="M26.0915231,26.7047778 C24.7474846,25.3647778 23.3677538,23.9903333 21.9813308,22.607 C22.1798692,22.4125556 22.3917923,22.2058889 22.5858692,22.0147778 C23.9656,23.3892222 25.3442154,24.7625556 26.7351,26.1492222 C26.5399077,26.317 26.3179462,26.5092222 26.0915231,26.7047778" id="Fill-5" fill="#74829D"></path>
                        <path d="M26.1776308,2.144 C26.3349,2.31066667 26.5312077,2.51844444 26.6996308,2.69733333 C25.3377462,4.05511111 23.9524385,5.434 22.5570923,6.824 C22.4020538,6.65844444 22.2057462,6.44844444 22.0384385,6.26844444 C23.4036692,4.90844444 24.7867462,3.52955556 26.1776308,2.144" id="Fill-7" fill="#74829D"></path>
                        <path d="M2.62885,26.7316667 C2.42138846,26.535 2.21281154,26.3383333 2.02431154,26.1594444 C3.41073462,24.7783333 4.78935,23.4038889 6.15681154,22.0427778 C6.34196538,22.2294444 6.54942692,22.4372222 6.74350385,22.6327778 C5.38496538,23.985 4.00523462,25.3605556 2.62885,26.7316667" id="Fill-9" fill="#74829D"></path>
                        <polygon id="Fill-11" fill="#74829D" points="13.9333846 3.77466667 14.8346154 3.77466667 14.8346154 0.110222222 13.9333846 0.110222222"></polygon>
                        <polygon id="Fill-13" fill="#74829D" points="0 14.878 3.68411538 14.878 3.68411538 13.9891111 0 13.9891111"></polygon>
                        <polygon id="Fill-14" fill="#74829D" points="25.0928077 14.8868889 28.7657692 14.8868889 28.7657692 13.9846667 25.0928077 13.9846667"></polygon>
                        <polygon id="Fill-15" fill="#74829D" points="13.9389615 28.7591111 14.8413077 28.7591111 14.8413077 25.0957778 13.9389615 25.0957778"></polygon>
                        <path d="M21.1396615,12.6941111 C21.2032385,13.0063333 21.2567769,13.2763333 21.3147769,13.5585556 C21.6315462,13.5163333 21.9204308,13.4774444 22.2293923,13.4352222 C22.1591231,13.0896667 22.0988923,12.7841111 22.0342,12.463 C21.7163154,12.5452222 21.4385846,12.6163333 21.1396615,12.6941111 L21.1396615,12.6941111 Z M21.3616231,14.4452222 C21.3114308,16.3452222 20.6511231,17.9896667 19.3059692,19.3318889 C17.9597,20.673 16.3078154,21.3296667 14.4072,21.3785556 L14.4072,22.2785556 C18.9958923,22.3207778 22.4190077,18.3118889 22.2427769,14.4452222 L21.3616231,14.4452222 Z M5.55996333,14.4352222 C5.55439231,9.583 9.50285385,5.643 14.3748538,5.63632747 C19.2412769,5.63077778 23.2064692,9.57077778 23.213173,14.4185556 C23.2209692,19.2563333 19.2535462,23.2163333 14.3915846,23.2241226 C9.53296923,23.2318889 5.56443077,19.283 5.55996333,14.4352222 L5.55996333,14.4352222 Z" id="Fill-16" fill="#FEFEFE"></path>
                        <path d="M21.3620692,14.445 L22.2432231,14.445 C22.4194538,18.3127778 18.9952231,22.3205556 14.4076462,22.2783333 L14.4076462,21.3794444 C16.3082615,21.3294444 17.9590308,20.6727778 19.3053,19.3316667 C20.6515692,17.9905556 21.3118769,16.3461111 21.3620692,14.445" id="Fill-17" fill="#74829D"></path>
                    </g>
                </g>
            </g>
        </g>
    </g>
</svg>