<?xml version="1.0" encoding="UTF-8"?>
<svg width="25px" height="25px" viewBox="0 0 25 25" version="1.1" xmlns="http://www.w3.org/2000/svg" xmlns:xlink="http://www.w3.org/1999/xlink">
    <!-- Generator: Sketch 63.1 (92452) - https://sketch.com -->
    <title>Group 29</title>
    <desc>Created with Sketch.</desc>
    <defs>
        <polygon id="path-1" points="0 0.026 24.9841402 0.026 24.9841402 12.059758 0 12.059758"></polygon>
        <polygon id="path-3" points="0.699962876 0.0666055249 4.73163043 0.0666055249 4.73163043 6.5 0.699962876 6.5"></polygon>
    </defs>
    <g id="Page-1" stroke="none" stroke-width="1" fill="none" fill-rule="evenodd">
        <g id="HOST-DOUBLE-PLAN" transform="translate(-120.000000, -340.000000)">
            <g id="Group-55" transform="translate(1.000000, 275.000000)">
                <g id="Group-29" transform="translate(119.000000, 65.000000)">
                    <g id="Group-3" transform="translate(0.000000, 0.057333)">
                        <mask id="mask-2" fill="white">
                            <use xlink:href="#path-1"></use>
                        </mask>
                        <g id="Clip-2"></g>
                        <path d="M4.64228261,8.2043 C4.4325,8.37005 4.23684783,8.52496667 4.02923913,8.68855 C3.4998913,8.02771667 3.25967391,7.28888333 3.22380435,6.41246667 C2.9575,6.46663333 2.69336957,6.49263333 2.44771739,6.57496667 C1.36184783,6.93788333 0.664021739,8.05913333 0.8325,9.14463333 C1.02054348,10.3601333 1.98358696,11.2408833 3.1825,11.24955 C5.10423913,11.2636333 7.02597826,11.2538833 8.94771739,11.2549667 C9.04663043,11.2549667 9.14554348,11.2549667 9.25858696,11.2549667 L9.25858696,12.0382167 C9.20315217,12.0447167 9.1401087,12.0566333 9.07706522,12.0566333 C7.12163043,12.0577167 5.16619565,12.0642167 3.21076087,12.0544667 C1.57815217,12.0479667 0.258586957,10.8584667 0.0270652174,9.2053 C-0.181630435,7.71463333 0.820543478,6.20555 2.32597826,5.77005 C2.63684783,5.68013333 2.96619565,5.65305 3.32054348,5.5913 C3.38467391,5.41471667 3.45097826,5.19155 3.54445652,4.98246667 C4.25206522,3.4073 5.89880435,2.56338333 7.59336957,2.90896667 C7.74554348,2.9393 7.81076087,2.89813333 7.88576087,2.76813333 C8.96836957,0.883133333 10.6118478,-0.0658666667 12.781413,0.0327166667 C14.6683696,0.1183 16.0966304,1.05321667 17.0520652,2.6793 C17.1672826,2.8743 17.2520652,2.93605 17.4922826,2.89055 C19.3205435,2.54496667 21.1009783,3.65863333 21.6151087,5.44721667 C21.631413,5.50355 21.6520652,5.55771667 21.6748913,5.62705 C22.331413,5.62921667 22.9466304,5.78846667 23.5053261,6.14705 C24.6911957,6.90755 25.2488043,8.36896667 24.8629348,9.71555 C24.4716304,11.0816333 23.2281522,12.0458 21.8129348,12.0533833 C19.9748913,12.0642167 18.1368478,12.0566333 16.2998913,12.0566333 C16.2498913,12.0566333 16.2009783,12.0523 16.1379348,12.04905 L16.1379348,11.2549667 C16.2368478,11.2549667 16.3259783,11.2549667 16.4161957,11.2549667 C18.1955435,11.2549667 19.9748913,11.2614667 21.7531522,11.2517167 C23.1575,11.2441333 24.2325,10.1131333 24.1748913,8.7243 C24.1238043,7.46763333 22.9846739,6.38321667 21.7705435,6.45363333 C21.733587,7.2683 21.5009783,8.02013333 20.9618478,8.69071667 C20.7531522,8.52388333 20.5542391,8.36355 20.3422826,8.19346667 C20.7933696,7.59871667 21.0042391,6.9433 20.9466304,6.21421667 C20.8998913,5.64221667 20.6944565,5.12763333 20.331413,4.67805 C19.6172826,3.79188333 18.4433696,3.42246667 17.3455435,3.73771667 C16.181413,4.07246667 15.4542391,5.02146667 15.3031522,6.42113333 L14.506413,6.42113333 C14.5640217,5.00413333 15.2140217,3.9598 16.4194565,3.24696667 C16.0151087,1.97188333 14.1988043,0.835466667 12.5488043,0.815966667 C10.5868478,0.792133333 9.07163043,2.05205 8.57271739,3.2383 C10.8509783,4.55346667 10.9053261,7.25421667 9.67054348,8.68205 C9.47271739,8.5228 9.27271739,8.36246667 9.0748913,8.20321667 C10.1966304,6.6183 9.56184783,5.0063 8.64554348,4.2653 C7.58576087,3.4073 6.06836957,3.42246667 5.03141304,4.29563333 C4.10097826,5.07996667 3.55315217,6.68546667 4.64228261,8.2043" id="Fill-1" fill="#FFFFFF" mask="url(#mask-2)"></path>
                    </g>
                    <path d="M13.3947826,9.70560833 C12.9393478,9.70560833 12.5295652,9.69585833 12.1219565,9.71319167 C12.0306522,9.71644167 11.9045652,9.79444167 11.8621739,9.87460833 C11.5621739,10.4433583 11.2784783,11.020775 10.9904348,11.596025 C10.908913,11.758525 10.8317391,11.9221083 10.7382609,12.1149417 C11.2002174,12.1149417 11.6252174,12.109525 12.0513043,12.1171083 C12.3752174,12.122525 12.5415217,12.3381083 12.4752174,12.649025 C12.4556522,12.7389417 12.4273913,12.8266917 12.4056522,12.915525 C12.3186957,13.2708583 12.2328261,13.6261917 12.1458696,13.981525 C12.16,13.9869417 12.1741304,13.9923583 12.1882609,13.997775 C12.8013043,13.2513583 13.4143478,12.5038583 14.0632609,11.713025 C13.6773913,11.713025 13.3458696,11.7151917 13.0154348,11.713025 C12.5371739,11.709775 12.3730435,11.4151083 12.6176087,11.0001917 C12.6936957,10.8701917 12.7730435,10.7423583 12.8502174,10.6134417 C13.0252174,10.3231083 13.1991304,10.0316917 13.3947826,9.70560833 M11.5763043,12.9176917 C11.0871739,12.9176917 10.635,12.9198583 10.183913,12.9166083 C9.74478261,12.9144417 9.56869565,12.6446917 9.76108696,12.2579417 C10.2697826,11.2341917 10.786087,10.2126083 11.2958696,9.187775 C11.3969565,8.98519167 11.5491304,8.898525 11.7773913,8.90065208 C12.5241304,8.90719167 13.2697826,8.90065208 14.0165217,8.90394167 C14.461087,8.90610833 14.6295652,9.207275 14.4023913,9.59294167 C14.1502174,10.023025 13.8904348,10.4476917 13.6121739,10.910275 C14.0426087,10.910275 14.4252174,10.9146083 14.808913,10.9091917 C15.0067391,10.9059417 15.1752174,10.946025 15.2719565,11.1388583 C15.3697826,11.3349417 15.2882609,11.4898583 15.1632609,11.641525 C13.9947826,13.0628583 12.8263043,14.4863583 11.66,15.9098583 C11.5132609,16.087525 11.3480435,16.1926083 11.1143478,16.084275 C10.9154348,15.9911083 10.8556522,15.8134417 10.9263043,15.528525 C11.1382609,14.670525 11.3523913,13.812525 11.5763043,12.9176917" id="Fill-4" fill="#FFFFFF"></path>
                    <path d="M8.46826087,16.901 C8.17586957,17.265 7.84652174,17.6398333 7.56173913,18.0460833 C7.4226087,18.2443333 7.32913043,18.4924167 7.28021739,18.73075 C7.16934783,19.27675 7.47586957,19.8173333 7.98130435,20.0415833 C8.48130435,20.2625833 9.06391304,20.1195833 9.40956522,19.6916667 C9.76934783,19.2453333 9.77369565,18.5790833 9.39108696,18.06125 C9.09217391,17.655 8.76282609,17.2693333 8.46826087,16.901 M6.45520333,18.8293333 C6.47152174,18.3190833 6.66934783,17.7774167 7.09652174,17.3386667 C7.74326087,16.67675 8.07586957,15.89675 8.06717391,14.9705 C8.065,14.6964167 8.23565217,14.5230833 8.4726087,14.5262884 C8.70956522,14.5295833 8.87152174,14.7029167 8.86826087,14.98025 C8.86065217,15.8978333 9.19978261,16.66375 9.82913043,17.3289167 C10.5965217,18.1403333 10.6943478,19.2875833 10.0997826,20.1098333 C9.58891304,20.8161667 8.69,21.1151667 7.86934783,20.853 C7.01608696,20.58 6.45195652,19.8108333 6.45520333,18.8293333" id="Fill-6" fill="#FFFFFF"></path>
                    <path d="M16.5238043,16.90165 C16.2542391,17.2374833 15.9629348,17.5809 15.6955435,17.9405667 C15.5672826,18.1128167 15.4509783,18.30565 15.3857609,18.5060667 C15.1846739,19.1214 15.4303261,19.7237333 15.9661957,20.0054 C16.4857609,20.2773167 17.1151087,20.1397333 17.4781522,19.6749833 C17.8357609,19.2178167 17.8194565,18.5385667 17.4238043,18.0229 C17.1259783,17.6350667 16.8118478,17.25915 16.5238043,16.90165 M14.5118338,18.8299833 C14.5281522,18.31865 14.7270652,17.7769833 15.1542391,17.3382333 C15.7998913,16.6763167 16.1325,15.8952333 16.1238043,14.9689833 C16.1216304,14.6959833 16.2933696,14.52265 16.5303261,14.5258551 C16.7672826,14.52915 16.9281522,14.7035667 16.9248913,14.9809 C16.9172826,15.8984833 17.2575,16.6644 17.8857609,17.3295667 C18.6531522,18.1409833 18.7509783,19.2882333 18.1553261,20.1104833 C17.6444565,20.8157333 16.7455435,21.1147333 15.9248913,20.8525667 C15.0727174,20.5795667 14.508587,19.8104 14.5118338,18.8299833" id="Fill-8" fill="#FFFFFF"></path>
                    <path d="M3.63228261,19.7120333 C3.3648913,20.0446167 3.07467391,20.3880333 2.80728261,20.7487833 C2.67902174,20.91995 2.56163043,21.1117 2.49641304,21.3132 C2.34097826,21.7931167 2.41815217,22.2427 2.79097826,22.6056167 C3.13119565,22.9371167 3.54206522,23.0357 3.99641304,22.8970333 C4.84858696,22.6381167 5.1148913,21.5818667 4.52032609,20.81595 C4.22576087,20.4357 3.91815217,20.0662833 3.63228261,19.7120333 M5.65184783,21.8050333 C5.60184783,22.5861167 5.23554348,23.2177 4.46923913,23.5676167 C3.71271739,23.9132 2.98445652,23.8113667 2.34967391,23.28595 C1.68771739,22.7367 1.49532609,22.01195 1.69423913,21.1832 C1.79206522,20.7758667 1.99206522,20.4205333 2.28554348,20.1226167 C2.92141304,19.4747833 3.23771739,18.7023667 3.23336957,17.7956167 C3.23119565,17.5161167 3.38880435,17.3427833 3.62358696,17.3362833 C3.86815217,17.3297833 4.03663043,17.5107 4.03445652,17.8010333 C4.02902174,18.7088667 4.3551087,19.47695 4.98663043,20.1258667 C5.42576087,20.5787 5.63445652,21.1312 5.65184783,21.8050333" id="Fill-10" fill="#FFFFFF"></path>
                    <path d="M21.358913,19.7114917 C21.0676087,20.0754917 20.7371739,20.450325 20.4523913,20.856575 C20.3132609,21.0537417 20.2197826,21.301825 20.1708696,21.5412417 C20.06,22.0872417 20.3665217,22.627825 20.8719565,22.8509917 C21.3719565,23.073075 21.9534783,22.930075 22.3002174,22.5021583 C22.66,22.0569083 22.6643478,21.389575 22.2828261,20.8717417 C21.9828261,20.4654917 21.6545652,20.079825 21.358913,19.7114917 M23.3763043,21.795825 C23.3306522,22.5736583 22.9686957,23.2084917 22.2045652,23.5627417 C21.4513043,23.9126583 20.7219565,23.8151583 20.083913,23.2929917 C19.4186957,22.748075 19.2219565,22.023325 19.4154348,21.194575 C19.5132609,20.778575 19.7186957,20.417825 20.0186957,20.112325 C20.6469565,19.4709917 20.96,18.705075 20.9578261,17.808075 C20.9567391,17.5134083 21.1176087,17.3346583 21.3621739,17.3368055 C21.6056522,17.3389917 21.761087,17.5177417 21.76,17.814575 C21.7567391,18.7029083 22.0686957,19.4612417 22.6871739,20.0982417 C23.1328261,20.557575 23.3556522,21.110075 23.3763043,21.795825" id="Fill-12" fill="#FFFFFF"></path>
                    <g id="Group-16" transform="translate(9.782609, 18.474000)">
                        <mask id="mask-4" fill="white">
                            <use xlink:href="#path-3"></use>
                        </mask>
                        <g id="Clip-15"></g>
                        <path d="M2.6925,2.41420833 C2.57076087,2.595125 2.44793478,2.80204167 2.30228261,2.991625 C2.1501087,3.189875 1.94793478,3.355625 1.82076087,3.566875 C1.68597826,3.791125 1.5675,4.044625 1.52402174,4.29920833 C1.40771739,4.96220833 1.87836957,5.572125 2.54141304,5.67504167 C3.17293478,5.77254167 3.78815217,5.33704167 3.90119565,4.68920833 C3.98163043,4.22554167 3.82945652,3.81929167 3.53163043,3.459625 C3.2501087,3.11945833 2.97945652,2.77170833 2.6925,2.41420833 M4.73163043,4.53754167 C4.6848913,5.30454167 4.32402174,5.93829167 3.5598913,6.293625 C2.80554348,6.64354167 2.07619565,6.54604167 1.43923913,6.023875 C0.774021739,5.47895833 0.577282609,4.75420833 0.77076087,3.92545833 C0.868586957,3.50945833 1.07402174,3.147625 1.37402174,2.84320833 C2.00228261,2.201875 2.31532609,1.434875 2.31206522,0.537875 C2.31206522,0.243208333 2.47293478,0.0644583333 2.7175,0.0666055249 C2.9598913,0.0687916667 3.11641304,0.247541667 3.11532609,0.544375 C3.11206522,1.43270833 3.42402174,2.19104167 4.0425,2.82804167 C4.48706522,3.287375 4.71206522,3.839875 4.73163043,4.53754167" id="Fill-14" fill="#FFFFFF" mask="url(#mask-4)"></path>
                    </g>
                </g>
            </g>
        </g>
    </g>
</svg>